<svg width="175" height="60" viewBox="0 0 175 60" fill="none" xmlns="http://www.w3.org/2000/svg">
<path fill-rule="evenodd" clip-rule="evenodd" d="M34.4416 2.9672C34.8105 3.78597 34.9403 4.67176 34.9026 5.45193C34.8648 6.23176 34.6782 6.90001 34.3086 7.32685C34.0611 7.6258 33.4941 7.32299 33.7568 7.03194C33.9891 6.76352 34.2009 6.15018 34.2358 5.43194C34.2706 4.71352 34.1469 3.88474 33.8122 3.14211C33.4779 2.39948 32.9377 1.74895 32.1536 1.34667C31.3692 0.944566 30.3293 0.771584 28.8994 1.02527C25.598 1.61088 21.4874 4.84053 17.5682 9.44264C13.649 14.0444 9.88378 19.9953 7.05908 25.9605C4.23455 31.926 2.35194 37.91 2.17519 42.5577C2.0869 44.8818 2.42797 46.869 3.26198 48.3444C4.09581 49.8197 5.39088 50.7844 7.3038 51.1476C9.32567 51.5312 11.5218 50.9602 13.796 49.7112C16.0703 48.4621 18.3947 46.544 20.6206 44.3177C25.0718 39.8644 29.1336 34.1802 31.7887 30.1377C31.9925 29.826 32.5872 30.0674 32.3819 30.3784C29.7166 34.4363 25.6455 40.1398 21.1456 44.6418C18.8955 46.8926 16.5399 48.844 14.1785 50.1409C11.4209 51.6553 7.66641 52.7339 4.15134 50.9126C-2.70484 47.3609 0.0186114 35.0732 4.52044 25.404C10.0264 13.5783 20.2965 1.50352 27.6481 0.139305C30.7569 -0.389818 33.3222 0.59597 34.4416 2.9672Z" fill="#052053"/>
<path fill-rule="evenodd" clip-rule="evenodd" d="M47.1675 23.8721H47.1704C47.1816 23.8721 47.1926 23.8727 47.2035 23.8732C47.2078 23.8737 47.2122 23.8742 47.2166 23.8746C47.2254 23.8753 47.2343 23.8767 47.2427 23.8779C47.2467 23.8786 47.2508 23.8795 47.2546 23.8802C47.2639 23.8823 47.2732 23.8842 47.2821 23.887C47.2853 23.8877 47.2882 23.8883 47.2912 23.8895C47.3031 23.8927 47.3145 23.8969 47.3257 23.9014L47.3266 23.9016C47.3277 23.9023 47.3287 23.9027 47.3298 23.9032C47.3399 23.9074 47.3497 23.912 47.3594 23.9174C47.3623 23.9188 47.3651 23.9205 47.368 23.9221C47.3751 23.9262 47.3821 23.9306 47.389 23.9351C47.3925 23.9376 47.396 23.94 47.3995 23.9425C47.4056 23.947 47.4112 23.9514 47.4172 23.9565C47.4203 23.9591 47.4235 23.9618 47.4265 23.9646C47.4345 23.972 47.442 23.9797 47.4491 23.9877L47.4499 23.9883C48.8233 25.5423 51.5546 26.2819 54.2947 26.4409C57.0352 26.6 59.7749 26.1569 60.9698 25.5327C61.0236 25.5032 61.0896 25.4856 61.1602 25.4856C61.3443 25.4856 61.4939 25.6032 61.4939 25.7479C61.4939 25.8411 61.4322 25.9227 61.3392 25.9693C59.8919 26.7256 57.1035 27.13 54.2455 26.9641C52.0295 26.8356 49.7664 26.3512 48.1387 25.3221C48.3162 25.9876 48.3393 26.7463 48.2449 27.5505C48.079 28.9655 47.5382 30.5277 46.7385 31.9783C45.9387 33.429 44.8815 34.7672 43.6563 35.7281C42.4315 36.689 40.5289 37.7409 38.2107 37.1551C35.6776 36.5155 33.9763 34.0928 35.1344 30.3739C36.1709 27.0462 39.7548 24.1262 43.303 24.3021C43.8594 24.3335 43.9384 24.9644 43.3288 25.0011C42.0806 25.0576 40.8907 25.7097 39.8771 26.7255C38.8161 27.7886 37.971 29.2334 37.4872 30.6905C37.0035 32.1479 36.8848 33.6191 37.2234 34.7188C37.562 35.8183 38.2839 36.5195 39.6005 36.6339C40.8155 36.7395 42.0442 36.2516 43.1849 35.357C44.3257 34.4623 45.3522 33.1732 46.126 31.7697C46.8997 30.3663 47.4223 28.8483 47.5801 27.5023C47.7381 26.1569 47.5184 24.9911 46.9009 24.2869C46.9006 24.2867 46.9002 24.2862 46.9002 24.2862C46.893 24.2781 46.8864 24.2695 46.8806 24.2607C46.8778 24.257 46.875 24.2534 46.8726 24.2493C46.8675 24.2412 46.8629 24.2328 46.8589 24.2244V24.2241C46.8557 24.2174 46.8533 24.2104 46.851 24.2037C46.8501 24.2014 46.8493 24.1991 46.8486 24.1969C46.8461 24.1893 46.844 24.1816 46.8426 24.1737C46.8391 24.1569 46.838 24.14 46.8391 24.1234V24.1209C46.8394 24.1151 46.8403 24.109 46.8414 24.103C46.8421 24.0981 46.8431 24.0934 46.844 24.0881C46.845 24.0841 46.8459 24.0798 46.8473 24.0758C46.8496 24.0681 46.8524 24.0602 46.8554 24.0528C46.8563 24.0505 46.857 24.0486 46.858 24.0463C46.8624 24.0367 46.8675 24.0272 46.8733 24.0183C46.8748 24.0156 46.8768 24.0134 46.8785 24.0106C46.8831 24.0039 46.888 23.9976 46.8932 23.9912C46.8959 23.9881 46.8981 23.9849 46.9009 23.9821C46.9058 23.9769 46.9106 23.9718 46.916 23.967C46.9195 23.9634 46.9232 23.9598 46.9269 23.9565C46.9316 23.9528 46.9358 23.9493 46.9405 23.9458C46.951 23.9379 46.9621 23.9304 46.974 23.9235C46.9756 23.9225 46.9773 23.9214 46.9791 23.9206C46.9869 23.916 46.9954 23.9118 47.0039 23.9079L47.0094 23.9055C47.0274 23.8974 47.0463 23.8905 47.0668 23.8855C47.0728 23.8837 47.0791 23.8825 47.0854 23.8814C47.0926 23.8798 47.0999 23.8783 47.1075 23.877C47.1132 23.8762 47.1187 23.8753 47.1246 23.8748C47.1379 23.8732 47.1513 23.8721 47.1651 23.8719C47.166 23.8719 47.1668 23.872 47.1675 23.8721Z" fill="#052053"/>
<path fill-rule="evenodd" clip-rule="evenodd" d="M74.7736 25.1002C73.2119 27.3858 71.9284 29.8326 71.3451 31.8784C71.0203 33.0177 70.9159 34.0323 71.0805 34.81C71.2455 35.5874 71.6492 36.1093 72.367 36.3826C73.1152 36.6674 73.9951 36.6332 74.9775 36.3481C75.9599 36.063 77.0223 35.5258 78.0593 34.85C80.1332 33.4984 82.1078 31.5969 83.2859 30.1188C83.5204 29.817 84.0945 30.0995 83.8513 30.397C82.6328 31.9265 80.6351 33.853 78.4855 35.2537C77.4107 35.9542 76.2988 36.5237 75.2087 36.8402C71.0352 38.0132 67.8312 35.5928 68.9112 31.2635C69.1995 30.1077 69.7714 28.8725 70.4401 27.7339C69.2209 28.9447 67.7932 30.3434 66.3575 31.7042C64.6682 33.3055 63.3047 34.5551 62.1335 35.3535C61.5482 35.7528 61.0101 36.0412 60.4821 36.1976C56.9301 37.2111 55.69 33.0346 57.8462 29.0307C60.0237 24.9872 65.8402 22.4619 70.3395 25.997C70.6578 26.2451 70.1794 26.6186 69.8657 26.3667C68.1584 25.0167 66.5509 24.8577 65.0126 25.3426C62.6767 26.0793 60.6 28.5183 59.479 30.8851C58.9186 32.0681 58.5919 33.2305 58.5567 34.1239C58.539 34.5705 58.5961 34.9495 58.7154 35.2212C58.8349 35.4932 58.9998 35.6472 59.2091 35.7205C59.5191 35.829 59.8362 35.8281 60.2466 35.7067C60.6574 35.5853 61.1444 35.3332 61.6962 34.9572C62.7995 34.2051 64.1583 32.967 65.8435 31.3697C68.8351 28.5339 71.8178 25.5104 72.8643 24.4421C72.8829 24.4228 72.9017 24.4023 72.92 24.3837C73.2564 24.0358 73.678 23.8793 74.0531 23.869C74.0755 23.8683 74.0978 23.8683 74.1198 23.8688C74.8023 23.8819 75.2982 24.3863 74.7736 25.1002Z" fill="#052053"/>
<path fill-rule="evenodd" clip-rule="evenodd" d="M80.7645 40.8048C79.0089 42.5718 78.0721 44.223 77.8232 45.5248C77.5743 46.8263 78.0602 47.7141 79.0209 48.0716C82.5378 49.2525 88.2713 43.9267 89.0612 39.3448C89.3215 37.8341 88.8188 36.6828 88.0214 35.6697C84.8139 37.3656 82.4215 39.1367 80.7645 40.8048ZM93.9041 25.3128C94.193 25.5891 93.652 25.9225 93.3789 25.6367C92.2082 24.4646 90.2401 24.3142 88.5167 24.9527C86.7934 25.5909 85.3687 27.0116 85.3932 28.997C85.4139 30.7081 87.0113 31.9272 88.6184 33.4227C88.9188 33.7023 89.2136 33.997 89.4991 34.3016C92.8348 32.7204 96.9038 31.2412 101.789 30.0091C102.215 29.8995 102.421 30.4034 101.993 30.5088C97.1736 31.7242 93.1649 33.1807 89.8849 34.7318C90.9349 35.9713 91.6944 37.4588 91.4227 39.462C91.0188 42.4439 88.8114 45.1937 86.2228 46.9821C84.9286 47.8765 83.5374 48.5321 82.2026 48.8486C80.8674 49.1653 79.5672 49.1406 78.5339 48.6288C77.3612 48.0486 76.8902 46.8737 77.1631 45.4467C77.436 44.0198 78.43 42.3023 80.2383 40.482C81.9458 38.7632 84.3916 36.9553 87.6524 35.2314C85.9604 33.3388 83.42 31.8411 83.4235 29.133C83.6078 26.3927 87.142 24.0006 90.4086 24.0344C91.6872 24.0477 92.9247 24.432 93.9041 25.3128Z" fill="#052053"/>
<path fill-rule="evenodd" clip-rule="evenodd" d="M122.42 2.19632C121.007 3.14439 119.441 4.59229 117.84 6.38089C116.663 7.6965 115.465 9.19703 114.286 10.8202C114.948 10.9128 115.611 11.009 116.274 11.1076C118.352 11.4162 120.423 11.7442 122.403 12.0333C124.358 9.38878 125.885 6.90562 126.669 4.95509C127.146 3.76913 127.341 2.7786 127.222 2.10053C127.162 1.76159 127.029 1.50562 126.834 1.32334C126.639 1.14106 126.38 1.02054 125.998 0.96422C125.883 0.946851 125.762 0.938431 125.637 0.938606C124.76 0.940361 123.656 1.36667 122.42 2.19632ZM108.576 19.9647C106.854 23.1805 105.393 26.4479 104.379 29.4518C109.249 26.7175 116.152 20.0142 121.078 13.7667C121.293 13.4947 121.502 13.2242 121.709 12.9544C119.444 12.6286 117.39 12.2776 115.965 12.089C115.28 11.9947 114.49 11.8721 113.629 11.7395C111.836 14.2932 110.105 17.1084 108.576 19.9647ZM127.883 2.02878C128.026 2.84615 127.798 3.88825 127.306 5.11316C126.513 7.0865 125.014 9.53194 123.1 12.1344C125.288 12.4461 127.346 12.7004 129.15 12.814C130.954 12.9274 132.504 12.8977 133.654 12.6612C134.805 12.4247 135.53 12.0107 135.85 11.3228C136.002 10.9919 136.624 11.1707 136.477 11.5028C135.242 14.3832 128.276 13.8637 122.412 13.0532C122.162 13.3816 121.907 13.7116 121.646 14.043C116.477 20.5979 109.251 27.6139 104.136 30.2195C103.679 31.6656 103.321 33.0502 103.112 34.3186C102.774 36.3612 102.792 38.1247 103.232 39.4367C103.672 40.7481 104.495 41.5895 105.823 41.9233C107.059 42.2209 108.482 41.9684 110.006 41.3072C111.532 40.6451 113.136 39.5795 114.685 38.3193C117.785 35.7984 120.67 32.5019 122.425 30.1204C122.644 29.807 123.239 30.0779 123.002 30.3832C121.222 32.7986 118.323 36.116 115.165 38.6837C113.587 39.9675 111.946 41.0647 110.329 41.7661C108.73 42.4453 106.445 43.1105 104.269 42.2382C98.0233 39.7351 102.237 26.6389 106.262 19.2425C107.589 16.8049 109.28 14.0339 111.188 11.3742C105.206 10.5239 97.588 9.89825 96.2418 13.8454C96.1956 13.9879 96.0095 14.0725 95.8294 14.0333C95.649 13.994 95.545 13.8461 95.5987 13.7054C96.0407 12.4535 97.0096 11.5547 98.3304 10.9697C99.6512 10.3844 101.313 10.0991 103.196 10.0077C103.667 9.98474 104.151 9.97405 104.648 9.97405C106.853 9.97422 109.299 10.187 111.829 10.4963C115.379 5.71878 119.591 1.47071 123.58 0.422115C124.103 0.284571 124.617 0.215795 125.099 0.215093C126.543 0.212988 127.691 0.824394 127.883 2.02878Z" fill="#052053"/>
<path fill-rule="evenodd" clip-rule="evenodd" d="M140.08 25.1002C138.519 27.3858 137.235 29.8326 136.652 31.8784C136.327 33.0177 136.223 34.0323 136.387 34.81C136.552 35.5874 136.956 36.1093 137.674 36.3826C138.422 36.6674 139.302 36.6332 140.284 36.3481C141.267 36.063 142.329 35.5258 143.366 34.85C145.44 33.4984 147.415 31.5969 148.593 30.1188C148.827 29.817 149.401 30.0995 149.158 30.397C147.94 31.9265 145.942 33.853 143.792 35.2537C142.718 35.9542 141.606 36.5237 140.516 36.8402C136.342 38.0132 133.138 35.5928 134.218 31.2635C134.507 30.1077 135.078 28.8725 135.747 27.7339C134.528 28.9447 133.1 30.3434 131.664 31.7042C129.975 33.3055 128.611 34.5551 127.441 35.3535C126.855 35.7528 126.317 36.0412 125.789 36.1976C122.237 37.2111 120.997 33.0346 123.153 29.0307C125.331 24.9872 131.147 22.4619 135.646 25.997C135.965 26.2451 135.486 26.6186 135.173 26.3667C133.465 25.0167 131.858 24.8577 130.32 25.3426C127.983 26.0793 125.907 28.5183 124.786 30.8851C124.225 32.0681 123.899 33.2305 123.864 34.1239C123.846 34.5705 123.903 34.9495 124.022 35.2212C124.142 35.4932 124.306 35.6472 124.516 35.7205C124.826 35.829 125.143 35.8281 125.554 35.7067C125.964 35.5853 126.451 35.3332 127.003 34.9572C128.106 34.2051 129.465 32.967 131.15 31.3697C134.142 28.5339 137.125 25.5104 138.171 24.4421C138.19 24.4228 138.209 24.4023 138.227 24.3837C138.563 24.0358 138.985 23.8793 139.36 23.869C139.382 23.8683 139.405 23.8683 139.427 23.8688C140.109 23.8819 140.605 24.3863 140.08 25.1002Z" fill="#052053"/>
<path fill-rule="evenodd" clip-rule="evenodd" d="M169.338 2.19632C167.925 3.14439 166.36 4.59229 164.759 6.38089C161.557 9.95755 158.207 14.8974 155.494 19.9647C153.772 23.1805 152.311 26.4479 151.297 29.4518C156.167 26.7175 163.07 20.0142 167.996 13.7667C170.583 10.4865 172.634 7.3272 173.587 4.95509C174.064 3.76913 174.259 2.7786 174.14 2.10053C174.08 1.76159 173.947 1.50562 173.752 1.32334C173.557 1.14106 173.298 1.02054 172.917 0.96422C172.801 0.946851 172.68 0.938606 172.555 0.938606C171.679 0.940361 170.575 1.36667 169.338 2.19632ZM174.801 2.02878C174.944 2.84615 174.716 3.88825 174.224 5.11316C173.239 7.56299 171.168 10.7402 168.564 14.043C163.395 20.5979 156.169 27.6139 151.054 30.2195C150.597 31.6656 150.239 33.0502 150.03 34.3186C149.692 36.3612 149.71 38.1247 150.15 39.4367C150.59 40.7481 151.413 41.5895 152.741 41.9233C153.977 42.2209 155.4 41.9684 156.924 41.3072C158.45 40.6451 160.054 39.5795 161.604 38.3193C164.703 35.7984 167.588 32.5019 169.343 30.1204C169.562 29.807 170.157 30.0779 169.92 30.3832C168.14 32.7986 165.241 36.116 162.084 38.6837C160.505 39.9675 158.864 41.0647 157.247 41.7661C155.648 42.4453 153.363 43.1105 151.187 42.2382C144.942 39.7351 149.155 26.6389 153.18 19.2425C157.064 12.106 164.071 2.11229 170.498 0.422115C171.021 0.284571 171.535 0.215795 172.017 0.215093C173.462 0.212988 174.609 0.824394 174.801 2.02878Z" fill="#052053"/>
<path d="M87.7284 59.7865C88.018 59.7821 88.2783 59.727 88.5096 59.621C88.7406 59.5149 88.9231 59.3689 89.0572 59.1828C89.1912 58.9967 89.2581 58.7847 89.2581 58.5467C89.2581 58.3216 89.2225 58.1323 89.1512 57.9788C89.0799 57.8251 88.9794 57.6984 88.8497 57.5989C88.7201 57.4995 88.5656 57.4161 88.3864 57.3491C88.207 57.2819 88.0115 57.2224 87.7997 57.1705C87.6053 57.1186 87.4282 57.0591 87.2683 56.9921C87.1083 56.9249 86.981 56.8384 86.8859 56.7324C86.7907 56.6263 86.7433 56.491 86.7433 56.3267C86.7433 56.1795 86.7853 56.053 86.8696 55.947C86.9538 55.8409 87.0717 55.7588 87.2229 55.7003C87.3741 55.6419 87.5491 55.6126 87.7479 55.6126C87.8819 55.6126 88.0157 55.6321 88.1497 55.671C88.2838 55.71 88.4069 55.7619 88.5192 55.8268C88.6315 55.8917 88.7245 55.9652 88.7979 56.0475C88.8368 56.0821 88.88 56.0995 88.9275 56.0995C88.9967 56.0995 89.0582 56.0725 89.1122 56.0184C89.1663 55.9642 89.1933 55.9047 89.1933 55.8398C89.1933 55.7619 89.15 55.6819 89.0636 55.5996C88.921 55.4482 88.732 55.3291 88.4966 55.2426C88.261 55.1561 88.0115 55.1128 87.7479 55.1128C87.4497 55.1128 87.1861 55.1637 86.9572 55.2654C86.7282 55.367 86.5488 55.5109 86.4192 55.697C86.2896 55.8831 86.2247 56.0995 86.2247 56.3461C86.2247 56.5409 86.2582 56.7107 86.3251 56.8558C86.3922 57.0007 86.4861 57.124 86.6072 57.2258C86.7282 57.3274 86.8718 57.4128 87.0381 57.4821C87.2045 57.5514 87.387 57.6098 87.5859 57.6574C87.8106 57.7093 88.0082 57.7731 88.1788 57.8489C88.3496 57.9245 88.4835 58.0188 88.5807 58.1312C88.6779 58.2437 88.7287 58.3865 88.7331 58.5596C88.7331 58.7024 88.6877 58.8279 88.597 58.9361C88.5062 59.0444 88.3841 59.1288 88.2309 59.1893C88.0774 59.2498 87.9056 59.2802 87.7155 59.2802C87.4692 59.2802 87.2478 59.2368 87.0512 59.1503C86.8545 59.0639 86.672 58.9382 86.5034 58.7739C86.456 58.7263 86.4018 58.7024 86.3414 58.7024C86.268 58.7024 86.2064 58.7295 86.1568 58.7837C86.107 58.8377 86.0822 58.8993 86.0822 58.9686C86.0822 59.0119 86.092 59.0519 86.1114 59.0888C86.1309 59.1254 86.1555 59.1589 86.1859 59.1893C86.4106 59.397 86.6439 59.5484 86.8859 59.6437C87.1278 59.7389 87.4088 59.7865 87.7284 59.7865ZM96.1137 59.7345C96.1829 59.7345 96.2488 59.7107 96.3113 59.6631C96.374 59.6156 96.4054 59.5484 96.4054 59.4619C96.4054 59.4014 96.386 59.343 96.3471 59.2867L94.6547 57.1167L96.2563 55.5996C96.3008 55.5551 96.3262 55.5075 96.3325 55.4567L96.3341 55.4309C96.3341 55.3703 96.3115 55.3119 96.2661 55.2556C96.2208 55.1993 96.1635 55.1712 96.0943 55.1712C96.0209 55.1712 95.9517 55.2037 95.8869 55.2686L93.4497 57.6098L93.4498 55.4438C93.4498 55.3758 93.4316 55.3182 93.3952 55.2717L93.3785 55.2524C93.3311 55.2026 93.2663 55.1777 93.1841 55.1777C93.1063 55.1777 93.0415 55.2026 92.9897 55.2524C92.9378 55.3021 92.9119 55.366 92.9119 55.4438V59.4554C92.9119 59.5289 92.9357 59.5917 92.9832 59.6437C93.0307 59.6956 93.0955 59.7216 93.1776 59.7216C93.2598 59.7216 93.3256 59.6956 93.3752 59.6437C93.425 59.5917 93.4498 59.5289 93.4498 59.4554L93.4497 58.2579L94.2471 57.5028L95.9193 59.6372C95.9654 59.6949 96.0218 59.727 96.0883 59.7333L96.1137 59.7345ZM100.299 59.7216C100.372 59.7216 100.436 59.6956 100.49 59.6437C100.544 59.5917 100.571 59.5289 100.571 59.4554V55.4438C100.571 55.366 100.545 55.3021 100.493 55.2524C100.442 55.2026 100.379 55.1777 100.306 55.1777C100.228 55.1777 100.163 55.2026 100.111 55.2524C100.059 55.3021 100.033 55.366 100.033 55.4438V59.4554C100.033 59.5289 100.057 59.5917 100.105 59.6437C100.152 59.6956 100.217 59.7216 100.299 59.7216ZM107.829 59.7216C107.902 59.7216 107.965 59.6967 108.017 59.647C108.069 59.5972 108.094 59.5312 108.094 59.4489V55.4179C108.094 55.3486 108.073 55.2914 108.03 55.246C107.986 55.2005 107.928 55.1777 107.855 55.1777C107.785 55.1777 107.728 55.2005 107.683 55.246C107.638 55.2914 107.615 55.3486 107.615 55.4179V58.7791L104.964 55.2686C104.947 55.2444 104.923 55.2249 104.893 55.2105L104.87 55.2005C104.829 55.1852 104.789 55.1777 104.75 55.1777C104.681 55.1777 104.621 55.2016 104.572 55.2491C104.522 55.2967 104.497 55.3595 104.497 55.4374V59.4814C104.497 59.5507 104.519 59.6081 104.562 59.6535C104.605 59.6989 104.661 59.7216 104.731 59.7216C104.804 59.7216 104.864 59.6989 104.909 59.6535C104.954 59.6081 104.977 59.5507 104.977 59.4814V56.1349L107.621 59.6372C107.639 59.6581 107.661 59.6753 107.69 59.6891L107.712 59.6989C107.751 59.714 107.79 59.7216 107.829 59.7216ZM117.878 59.1633C117.96 59.1633 118.027 59.1374 118.079 59.0854C118.131 59.0335 118.157 58.9665 118.157 58.8842L118.157 57.8067H119.213C119.276 57.8067 119.33 57.79 119.373 57.7567L119.395 57.7386C119.442 57.6932 119.466 57.6358 119.466 57.5665C119.466 57.4972 119.442 57.4388 119.395 57.3912C119.347 57.3437 119.287 57.3198 119.213 57.3198L118.157 57.32L118.157 56.2098C118.157 56.1379 118.138 56.0775 118.1 56.0288L118.082 56.0086C118.033 55.9567 117.967 55.9307 117.885 55.9307C117.802 55.9307 117.734 55.9567 117.68 56.0086C117.626 56.0605 117.599 56.1275 117.599 56.2098L117.599 57.32L116.556 57.3198C116.493 57.3198 116.439 57.3365 116.396 57.37L116.374 57.3881C116.327 57.4335 116.303 57.4907 116.303 57.56C116.303 57.6293 116.327 57.6877 116.374 57.7352C116.422 57.7828 116.482 57.8067 116.556 57.8067H117.599L117.599 58.8907C117.599 58.9589 117.62 59.017 117.661 59.0654L117.68 59.0854C117.734 59.1374 117.8 59.1633 117.878 59.1633ZM129.574 59.7216C129.742 59.7216 129.91 59.7 130.076 59.6567C130.242 59.6133 130.394 59.5409 130.53 59.4393C130.666 59.3375 130.775 59.2033 130.857 59.0368C130.939 58.8702 130.98 58.6635 130.98 58.4168C130.98 58.1875 130.938 57.9949 130.854 57.8391C130.769 57.6833 130.659 57.5579 130.523 57.4626C130.387 57.3674 130.239 57.2982 130.079 57.2549L130.129 57.2696L130.152 57.26C130.167 57.2533 130.181 57.2461 130.196 57.2389L130.238 57.216C130.404 57.1207 130.531 56.9931 130.617 56.833C130.703 56.6728 130.747 56.4975 130.747 56.3072C130.747 55.9481 130.644 55.67 130.439 55.4731C130.234 55.2761 129.941 55.1777 129.561 55.1777H127.869C127.796 55.1777 127.734 55.2026 127.684 55.2524C127.635 55.3021 127.61 55.3639 127.61 55.4374V59.4554C127.61 59.5289 127.635 59.5917 127.684 59.6437C127.734 59.6956 127.796 59.7216 127.869 59.7216H129.574ZM128.167 55.6905H129.483C129.703 55.6905 129.876 55.75 130.001 55.8691C130.127 55.9881 130.189 56.1558 130.189 56.3721C130.189 56.6144 130.121 56.7974 129.985 56.9207C129.849 57.044 129.686 57.1056 129.496 57.1056H128.167V55.6905ZM128.167 57.6249H129.535C129.682 57.6249 129.823 57.6465 129.959 57.6898C130.095 57.7331 130.207 57.8121 130.293 57.9268C130.379 58.0414 130.423 58.2047 130.423 58.4168C130.423 58.6895 130.342 58.8907 130.18 59.0205C130.018 59.1503 129.809 59.2153 129.554 59.2153H128.167V57.6249ZM137.194 59.7216C137.267 59.7216 137.33 59.6977 137.382 59.6502C137.434 59.6026 137.46 59.5419 137.46 59.4684C137.46 59.4035 137.434 59.3451 137.382 59.2931C137.33 59.2412 137.267 59.2153 137.194 59.2153H135.165V57.6379H136.902C136.965 57.6379 137.02 57.6212 137.067 57.5879L137.09 57.5698C137.142 57.5244 137.168 57.4647 137.168 57.3912C137.168 57.3177 137.142 57.257 137.09 57.2095C137.039 57.1619 136.976 57.1381 136.902 57.1381H135.165V55.6775H137.194C137.257 55.6775 137.312 55.6609 137.359 55.6275L137.382 55.6095C137.434 55.564 137.46 55.5044 137.46 55.4309C137.46 55.3574 137.434 55.2967 137.382 55.2491C137.33 55.2016 137.267 55.1777 137.194 55.1777H134.887C134.813 55.1777 134.752 55.2026 134.702 55.2524C134.652 55.3021 134.627 55.3639 134.627 55.4374V59.4554C134.627 59.5289 134.652 59.5917 134.702 59.6437C134.752 59.6956 134.813 59.7216 134.887 59.7216H137.194ZM144.315 59.7345C144.38 59.7345 144.439 59.7119 144.49 59.6665C144.542 59.621 144.568 59.5593 144.568 59.4814C144.568 59.4468 144.562 59.4121 144.549 59.3775L142.877 55.327C142.859 55.2751 142.828 55.234 142.782 55.2037C142.737 55.1733 142.687 55.1582 142.63 55.1582C142.574 55.1539 142.523 55.1658 142.478 55.194C142.433 55.2221 142.399 55.2665 142.377 55.327L140.699 59.4165C140.686 59.451 140.681 59.4835 140.686 59.5138C140.686 59.5744 140.705 59.6263 140.744 59.6696C140.783 59.713 140.843 59.7345 140.926 59.7345C140.973 59.7345 141.018 59.7195 141.062 59.6891C141.105 59.6588 141.135 59.6177 141.152 59.5658L141.586 58.5077H143.639L144.076 59.5593C144.094 59.6061 144.119 59.644 144.152 59.673L144.173 59.6891C144.216 59.7195 144.264 59.7345 144.315 59.7345ZM143.428 58.0014H141.794L142.606 56.0223L143.428 58.0014ZM149.739 59.767C150.067 59.767 150.361 59.6902 150.62 59.5367C150.879 59.383 151.086 59.1742 151.239 58.9102C151.393 58.6461 151.469 58.3475 151.469 58.0144V55.4374C151.469 55.3639 151.445 55.301 151.398 55.2491C151.35 55.1972 151.29 55.1712 151.216 55.1712C151.139 55.1712 151.078 55.1972 151.035 55.2491C150.992 55.301 150.97 55.3639 150.97 55.4374V58.0144C150.97 58.2524 150.913 58.4644 150.799 58.6505C150.684 58.8367 150.534 58.9826 150.348 59.0888C150.162 59.1947 149.959 59.2477 149.739 59.2477C149.523 59.2477 149.323 59.1947 149.139 59.0888C148.955 58.9826 148.81 58.8367 148.702 58.6505C148.594 58.4644 148.54 58.2524 148.54 58.0144V55.4374C148.54 55.3639 148.513 55.301 148.459 55.2491C148.405 55.1972 148.343 55.1712 148.274 55.1712C148.192 55.1712 148.126 55.1972 148.076 55.2491C148.027 55.301 148.002 55.3639 148.002 55.4374V58.0144C148.002 58.3475 148.077 58.6461 148.229 58.9102C148.38 59.1742 148.586 59.383 148.847 59.5367C149.109 59.6902 149.406 59.767 149.739 59.767ZM156.795 59.7216C156.877 59.7216 156.944 59.6956 156.996 59.6437C157.048 59.5917 157.074 59.5289 157.074 59.4554L157.074 55.6712L158.305 55.671C158.368 55.671 158.424 55.6551 158.47 55.6233L158.493 55.6061C158.545 55.5628 158.571 55.5023 158.571 55.4244C158.571 55.3509 158.545 55.2914 158.493 55.246C158.442 55.2005 158.379 55.1777 158.305 55.1777H155.292C155.218 55.1777 155.157 55.2005 155.107 55.246C155.057 55.2914 155.032 55.3509 155.032 55.4244C155.032 55.4979 155.057 55.5575 155.107 55.603C155.157 55.6484 155.218 55.671 155.292 55.671L156.523 55.6712L156.523 59.4554C156.523 59.5198 156.543 59.576 156.583 59.6237L156.601 59.6437C156.653 59.6956 156.718 59.7216 156.795 59.7216ZM163.502 59.7216C163.571 59.7216 163.63 59.6956 163.68 59.6437C163.73 59.5917 163.755 59.5289 163.755 59.4554V57.5591L165.174 55.5802C165.187 55.5607 165.197 55.5407 165.204 55.52L165.21 55.4991C165.216 55.4709 165.219 55.4438 165.219 55.4179C165.219 55.3486 165.195 55.287 165.145 55.233C165.095 55.1788 165.034 55.1517 164.96 55.1517C164.874 55.1517 164.803 55.1951 164.746 55.2816L163.51 57.0233L162.238 55.2751C162.188 55.2019 162.126 55.1614 162.052 55.1533L162.024 55.1517C161.964 55.1517 161.903 55.1767 161.843 55.2265C161.782 55.2761 161.752 55.3379 161.752 55.4114C161.752 55.4417 161.757 55.4731 161.768 55.5056C161.779 55.5381 161.797 55.5716 161.823 55.6061L163.236 57.5179L163.236 59.4554C163.236 59.5198 163.255 59.576 163.293 59.6237L163.311 59.6437C163.36 59.6956 163.424 59.7216 163.502 59.7216Z" fill="#98B4DE"/>
</svg>
